PathFileType  4	(X/Y/Z) C:\Users\antoi\Documents\MyRepositories\mobilecap\ResultsAnalysis
DataRate	CameraRate	NumFrames	NumMarkers	Units	OrigDataRate	OrigDataStartFrame	OrigNumFrames
100.0	100.0	5	51	mm	100.0	89	141
Frame#	Time	r_knee			r_shank_antsup			r_ankle			r_calc			r_5meta			r_toe			L_knee			L_shank_antsup			L_ankle			L_calc			L_5meta			L_toe			r_sh2			r_sh3			r_sh4			L_sh2			L_sh3			r_thigh1			r_thigh2			r_thigh3			r_thigh4			r_thigh5			L_thigh1			L_thigh2			L_thigh3			L_thigh4			r.ASIS			r.PSIS			L.ASIS			L.PSIS			C7			R_Shoulder			L_Shoulder			R_Sternum			L_Sternum			R_humerus			R_elbow_med			R_elbow_lat			R_forearm			R_wrist_radius			R_wrist_ulna			L_humerus			L_elbow_med			L_elbow_lat			L_forearm			L_wrist_radius			L_wrist_ulna			R_HJC			L_HJC			R_HJC_reg			L_HJC_reg			
		X1	Y1	Z1	X2	Y2	Z2	X3	Y3	Z3	X4	Y4	Z4	X5	Y5	Z5	X6	Y6	Z6	X7	Y7	Z7	X8	Y8	Z8	X9	Y9	Z9	X10	Y10	Z10	X11	Y11	Z11	X12	Y12	Z12	X13	Y13	Z13	X14	Y14	Z14	X15	Y15	Z15	X16	Y16	Z16	X17	Y17	Z17	X18	Y18	Z18	X19	Y19	Z19	X20	Y20	Z20	X21	Y21	Z21	X22	Y22	Z22	X23	Y23	Z23	X24	Y24	Z24	X25	Y25	Z25	X26	Y26	Z26	X27	Y27	Z27	X28	Y28	Z28	X29	Y29	Z29	X30	Y30	Z30	X31	Y31	Z31	X32	Y32	Z32	X33	Y33	Z33	X34	Y34	Z34	X35	Y35	Z35	X36	Y36	Z36	X37	Y37	Z37	X38	Y38	Z38	X39	Y39	Z39	X40	Y40	Z40	X41	Y41	Z41	X42	Y42	Z42	X43	Y43	Z43	X44	Y44	Z44	X45	Y45	Z45	X46	Y46	Z46	X47	Y47	Z47	X48	Y48	Z48	X49	Y49	Z49	X50	Y50	Z50	X51	Y51	Z51	

89	0.88000000	904.79287	505.64725	-106.76270	892.01861	406.85440	-113.18170	652.33335	193.95989	-170.50236	598.59751	196.86265	-238.81688	699.78183	88.24982	-104.15353	759.55731	92.09475	-142.27477	846.73489	502.80089	-399.57424	879.27236	414.07086	-385.94011	773.40287	96.65106	-380.84742	697.17758	54.82232	-335.27315	875.98025	38.78844	-417.42413	923.05130	63.59579	-359.13941	820.42581	319.29344	-126.68534	833.15203	449.45381	-90.96555	754.75395	366.13234	-103.41423	801.10318	436.65902	-427.55918	780.56006	318.23225	-433.37425	883.94020	786.30707	-79.01372	923.33921	683.43599	-85.16364	875.57791	637.46637	-64.78779	777.62428	742.65278	-75.39071	825.08737	638.36808	-91.32612	903.46993	753.03458	-412.18025	920.90689	615.55933	-388.51529	803.82167	733.63832	-452.52476	818.94769	603.66523	-423.26546	882.12103	969.46565	-125.62156	685.76174	1005.31225	-217.07302	902.61815	964.72378	-380.03276	693.18893	1006.59776	-312.35406	759.57268	1446.24917	-364.28722	839.56626	1459.79696	-194.45431	841.15242	1355.53574	-496.98438	878.30317	1374.65605	-315.66015	876.07584	1361.61532	-359.66733	881.03171	1342.90258	-114.59014	785.68280	1144.69207	-96.17083	812.12885	1165.70892	-37.58293	873.96027	1102.14752	-23.42163	922.28509	936.92170	-41.55776	899.60390	941.76354	3.45755	864.57014	1207.26425	-520.10338	792.35094	1020.24009	-443.87794	803.99503	1019.68803	-521.85874	850.89320	962.59465	-533.63141	902.08320	794.47951	-504.38266	859.25894	793.41177	-530.49869	800.46961	883.66503	-154.83919	814.04734	882.28755	-343.91134	812.05734	889.72152	-168.30558	825.14774	891.98952	-336.26090	
90	0.89000000	922.73408	510.09138	-107.73117	914.17208	410.78860	-113.15311	686.20266	184.50060	-169.86631	632.52653	184.25870	-238.05205	739.76277	81.67954	-103.19264	799.40547	89.28206	-141.14499	849.38562	503.20013	-400.05141	881.07967	414.29231	-386.51395	773.80507	97.12649	-380.82959	697.42726	55.61058	-335.17863	876.04107	38.74282	-417.48617	923.20908	63.37278	-359.24138	846.95997	319.33252	-126.53658	853.07464	450.47149	-91.68719	779.11158	363.10675	-103.76917	802.90316	437.26228	-427.89312	781.73940	318.92739	-433.58574	896.67881	790.17763	-79.48539	937.97259	688.05901	-85.83760	890.99356	641.21087	-65.46499	791.32177	744.61677	-75.99727	840.63654	641.40502	-92.00859	911.06154	752.53810	-412.93936	926.23572	614.85389	-389.21522	811.12016	734.81679	-453.19450	823.93772	604.62391	-423.76208	892.47419	971.71433	-128.00268	696.33828	1007.06722	-218.84725	913.17697	965.43579	-381.64117	703.97031	1008.12545	-314.08826	770.75522	1448.72516	-363.61853	849.26465	1460.69347	-193.04964	853.41616	1360.27492	-496.86047	889.35128	1377.00582	-315.02053	887.45504	1364.53152	-359.16587	889.74482	1343.45572	-113.29544	794.33507	1145.17036	-97.08286	819.52943	1166.07805	-38.04960	881.12580	1102.59442	-22.54950	929.96566	937.42556	-39.75617	906.30445	942.29156	4.69020	878.18651	1212.37387	-520.71354	805.84208	1024.66735	-445.91358	819.38883	1024.20752	-523.64675	867.01831	967.61198	-534.31676	919.03423	799.89294	-503.83934	876.87418	798.41167	-531.13287	810.96872	885.75598	-156.18501	824.43248	883.37793	-345.25594	822.52026	891.52583	-170.51246	835.93715	893.38772	-337.97181	
91	0.90000000	940.05218	514.19668	-108.89141	935.98161	414.52549	-113.41480	720.89385	175.06797	-169.02162	667.41494	171.61963	-237.13009	780.39109	75.59876	-101.98903	839.63393	86.83664	-139.84244	852.21634	503.60403	-400.57968	883.01011	414.53125	-387.15879	774.27532	97.66890	-380.83182	697.69308	56.50314	-335.06547	876.11602	38.69494	-417.54871	923.42433	63.15217	-359.35335	873.29971	319.10979	-126.63413	872.71106	450.95364	-92.39159	803.66287	359.53342	-104.00597	804.82505	437.88769	-428.31012	783.03793	319.66265	-433.85888	909.21254	793.70321	-80.05683	952.26885	692.31117	-86.74207	906.07649	644.74307	-66.29629	804.86081	746.47589	-76.60309	855.77486	644.18972	-92.81814	918.76261	752.05493	-413.61590	931.73468	614.22192	-389.86738	818.58854	735.93104	-453.94576	829.17278	605.57090	-424.33058	902.80360	973.61435	-130.32775	706.88819	1008.59457	-220.56683	923.69559	965.88604	-383.21740	714.70131	1009.50958	-315.78599	781.86805	1451.01412	-362.73041	858.95169	1461.27127	-191.48943	865.59349	1364.90384	-496.57288	900.36457	1379.13139	-314.25888	898.77761	1367.25538	-358.53396	898.43074	1343.66322	-111.90739	803.03496	1145.28102	-97.99038	827.03321	1166.05964	-38.54080	888.34595	1102.68465	-21.68456	937.70673	937.57344	-37.89007	913.07437	942.46503	5.94634	891.69809	1217.40289	-521.26857	819.35184	1028.96356	-447.95951	834.69791	1028.68697	-525.45307	883.16286	972.60742	-534.97248	935.98887	805.26356	-503.28889	894.55440	803.38228	-531.78473	821.38031	887.55588	-157.53207	834.72661	884.24978	-346.59678	832.95015	892.95657	-172.71363	846.64976	894.56143	-339.69757	
92	0.91000000	956.77148	517.89585	-110.19484	957.48359	418.04319	-113.97547	756.33687	165.88764	-167.98574	703.18699	159.16075	-236.05932	821.58124	70.22913	-100.59412	880.16063	84.92368	-138.45102	855.25222	503.99605	-401.15499	885.06977	414.77587	-387.85562	774.80546	98.26782	-380.84512	697.96583	57.47231	-334.94948	876.19757	38.64138	-417.60896	923.70299	62.94155	-359.47672	899.51635	318.74338	-126.91430	892.17806	450.89988	-93.05510	828.47091	355.52228	-104.09491	806.88912	438.52018	-428.80866	784.47526	320.42195	-434.19313	921.56369	796.83047	-80.76147	966.22187	696.12763	-87.86847	920.81380	647.98866	-67.28476	818.22233	748.17574	-77.21216	870.45154	646.68024	-93.71122	926.59055	751.56050	-414.23224	937.40878	613.62315	-390.47186	826.24656	736.96008	-454.81600	834.67454	606.47136	-424.98129	913.18438	975.17677	-132.51449	717.45448	1009.86987	-222.21699	934.18890	966.06843	-384.77051	725.40902	1010.72068	-317.43933	792.90128	1453.09898	-361.60304	868.62358	1461.52418	-189.78869	877.71158	1369.38438	-496.10285	911.35028	1381.00642	-313.36738	910.05819	1369.75614	-357.76143	907.09659	1343.52965	-110.42866	811.81346	1145.02713	-98.90674	834.66232	1165.66028	-39.04162	895.63494	1102.41121	-20.83342	945.53334	937.36205	-35.98084	919.89244	942.26354	7.20967	905.10327	1222.30661	-521.74842	832.87103	1033.08853	-450.01766	849.91887	1033.08778	-527.26983	899.29051	977.52329	-535.60142	952.94536	810.55561	-502.75310	912.29335	808.29556	-532.46065	831.76548	889.06404	-158.84551	844.97900	884.88456	-347.90096	843.41108	893.98361	-174.82659	857.32580	895.47150	-341.41414	
93	0.92000000	972.92841	521.12795	-111.58629	978.70864	421.32849	-114.81974	792.42461	157.16526	-166.77589	739.72121	147.07217	-234.82223	863.25225	65.75145	-99.08578	920.89806	83.69257	-137.08486	858.50185	504.36327	-401.76339	887.24523	415.00798	-388.57384	775.37140	98.90780	-380.85170	698.24861	58.48527	-334.83187	876.27640	38.57944	-417.66068	924.03409	62.74168	-359.61196	925.78639	318.42692	-127.30919	911.58677	450.33805	-93.65861	853.59086	351.21426	-103.99942	809.10359	439.14688	-429.37260	786.05193	321.18602	-434.57675	933.76225	799.51705	-81.63281	979.82674	699.44596	-89.20821	935.18389	650.86312	-68.42145	831.38079	749.66517	-77.82164	884.64991	648.85579	-94.60807	934.54627	751.02370	-414.81611	943.25331	613.01593	-391.01973	834.10458	737.88004	-455.82665	840.45367	607.29025	-425.70777	923.68797	976.41709	-134.51314	728.07254	1010.87106	-223.79644	944.68715	966.00256	-386.31217	736.12239	1011.71880	-319.04005	803.84399	1454.96678	-360.21778	878.27819	1461.44905	-187.96084	889.79620	1373.68335	-495.43404	922.31997	1382.60817	-312.33987	921.30873	1372.00234	-356.84183	915.75157	1343.05620	-108.87134	820.71669	1144.40812	-99.84082	842.41961	1164.88961	-39.53971	902.99989	1101.77107	-19.99730	953.46137	936.79345	-34.05041	926.73235	941.67484	8.46541	918.41404	1227.04589	-522.12984	846.38241	1037.00964	-452.09282	865.06194	1037.37279	-529.08487	915.36724	982.30520	-536.20792	969.90395	815.73922	-502.24910	930.08707	813.12175	-533.16206	842.19535	890.27971	-160.10882	855.25241	885.27677	-349.15387	853.96164	894.61511	-176.79455	868.01712	896.09455	-343.10294	
